<svg id="Layer_1" xmlns="http://www.w3.org/2000/svg" version="1.1" viewBox="273.87 473.2 652.15 253.62">
  <!-- Generator: Adobe Illustrator 29.6.1, SVG Export Plug-In . SVG Version: 2.1.1 Build 9)  -->
  <defs>
    <style>
      .st0 {
        fill: white;
      }


    </style>
  </defs>

  <g>
    <g>
      <rect class="st0" x="273.9" y="473.2" width="157.7" height="22.2"/>
      <rect class="st0" x="476" y="473.2" width="1.8" height="253.6"/>
      <g>
        <g>
          <polygon class="st0" points="293.5 657.5 293.5 657.5 315.7 644.5 315.7 644.5 293.5 657.5"/>
          <polygon class="st0" points="315.7 633.1 315.7 505.3 293.5 505.3 293.5 646.1 315.7 633.1"/>
        </g>
        <g>
          <polygon class="st0" points="347.8 614.3 347.8 505.3 325.6 505.3 325.6 627.3 347.8 614.3"/>
          <polygon class="st0" points="325.6 638.7 325.6 638.7 347.8 625.7 347.8 625.7 325.6 638.7"/>
        </g>
        <g>
          <polygon class="st0" points="379.9 595.5 379.9 505.3 357.7 505.3 357.7 608.5 379.9 595.5"/>
          <polygon class="st0" points="357.7 619.9 357.7 620 379.9 607.5 379.9 606.9 357.7 619.9"/>
        </g>
        <polygon class="st0" points="412 576.8 412 505.3 389.8 505.3 389.8 589.8 412 576.8"/>
      </g>
      <polygon class="st0" points="373.6 610.6 293.5 657.5 412 726.8 412 588.2 373.6 610.6"/>
    </g>
    <g>
      <g>
        <path class="st0" d="M557.6,599.9h45.5c1.1,0,2-.3,2.6-.8.6-.5,1-1.4,1.4-2.7h1.7v19.2h-1.7c-.4-1.3-.8-2.2-1.4-2.7-.6-.5-1.4-.8-2.6-.8h-65.2v-1.7c1.3-.4,2.2-.8,2.7-1.4.5-.6.8-1.4.8-2.6v-62.7c0-1.1-.3-2-.8-2.6-.5-.6-1.4-1-2.7-1.4v-1.7h23.1v1.7c-1.3.3-2.2.8-2.7,1.4-.5.6-.8,1.5-.8,2.6v56.2Z"/>
        <path class="st0" d="M678.8,556.8v32.2c0,7.3-1.4,12.7-4.3,16.2-4.7,5.5-13.5,8.2-26.4,8.2s-15.6-1.3-20.9-4c-3.8-1.9-6.5-4.6-7.9-8.2-1.3-3.3-2-7.3-2-12.2v-32.2c0-1.1-.3-2-.8-2.6-.5-.6-1.4-1.1-2.7-1.5v-1.5h21.5v1.5c-1.3.4-2.2.8-2.7,1.4-.5.6-.7,1.5-.7,2.6v29.2c0,3.4.3,6,.9,7.8.6,1.8,1.6,3.3,3.1,4.4,3,2.4,7.3,3.5,12.9,3.5s9.9-1.2,12.9-3.5c1.4-1.2,2.5-2.6,3-4.4.6-1.8.9-4.4.9-7.8v-29.2c0-1.1-.2-2-.7-2.6-.5-.6-1.4-1.1-2.7-1.5v-1.5h20.2v1.5c-1.3.4-2.2.8-2.7,1.4-.5.6-.8,1.5-.8,2.6Z"/>
        <path class="st0" d="M730.6,612.1l-22.2-40v34.4c0,1.1.3,2,.8,2.6.5.6,1.4,1.1,2.7,1.5v1.5h-20.2v-1.5c1.3-.3,2.2-.8,2.7-1.4.5-.6.8-1.5.8-2.6v-49.7c0-1.1-.3-2-.8-2.6-.5-.6-1.4-1.1-2.7-1.4v-1.5h25.7v1.5c-1.7.5-2.6,1.6-2.6,3.1s.6,3.3,1.8,5.4l15.2,27.5,15.3-27.1c1.7-2.9,2.6-4.9,2.6-6.1s-.9-2.4-2.7-2.8v-1.5h25v1.5c-1.3.4-2.2.8-2.7,1.4-.5.6-.8,1.5-.8,2.6v49.7c0,1.1.3,2,.8,2.6.5.6,1.4,1.1,2.7,1.5v1.5h-21.5v-1.5c1.3-.3,2.2-.8,2.7-1.4.5-.6.8-1.5.8-2.6v-34.4l-23.5,40Z"/>
        <path class="st0" d="M800.8,586.2v14.8h38.6c1.1,0,2-.2,2.6-.7.6-.5,1.1-1.4,1.4-2.7h1.5v18h-1.5c-.3-1.3-.8-2.2-1.4-2.7-.6-.5-1.5-.8-2.6-.8h-56.6v-1.5c1.3-.3,2.2-.8,2.7-1.4.5-.6.8-1.5.8-2.6v-49.7c0-1.1-.3-2-.8-2.6-.5-.6-1.4-1.1-2.7-1.5v-1.5h54.9c1.2,0,2-.3,2.6-.8.6-.5,1.1-1.4,1.4-2.7h1.5v18h-1.5c-.4-1.3-.8-2.2-1.4-2.7-.6-.5-1.5-.7-2.6-.7h-36.9v13.3h22.9c1.1,0,2-.3,2.6-.8.6-.5,1.1-1.4,1.5-2.7h1.5v17.5h-1.5c-.4-1.3-.8-2.2-1.4-2.7-.6-.5-1.5-.8-2.6-.8h-22.9Z"/>
        <path class="st0" d="M870.8,572v34.5c0,1.1.3,2,.8,2.6.5.6,1.4,1.1,2.7,1.5v1.5h-20.2v-1.5c1.3-.3,2.2-.8,2.7-1.4.5-.6.8-1.5.8-2.6v-49.7c0-1.1-.3-2-.8-2.6-.5-.6-1.4-1.1-2.7-1.5v-1.5h23.3v1.5c-1.6.4-2.4,1.1-2.4,2.1s.6,1.9,1.7,3l32.6,32.3v-33.5c0-1.1-.3-2-.8-2.6-.5-.6-1.4-1.1-2.7-1.4v-1.5h20.2v1.5c-1.3.4-2.2.8-2.7,1.4-.5.6-.8,1.5-.8,2.6v49.7c0,1.1.3,2,.8,2.6.5.6,1.4,1.1,2.7,1.5v1.5h-21.8v-1.5c1.6-.3,2.4-1,2.4-2s-.2-1-.7-1.6-1.4-1.6-3-3.2l-32.3-31.8Z"/>
      </g>
      <g>
        <path class="st0" d="M549.5,653.1v-22.5h2.8v22.5h-2.8Z"/>
        <path class="st0" d="M568.7,653.1v-10.7c0-2.9-1.5-3.8-3.7-3.8s-3.9,1.2-4.9,2.5v11.9h-2.6v-16.3h2.6v2.4c1.2-1.3,3.4-2.8,5.9-2.8s5.3,1.7,5.3,5.3v11.4h-2.6Z"/>
        <path class="st0" d="M576.9,649.7v-10.7h-2.7v-2.2h2.7v-4.5h2.6v4.5h3.4v2.2h-3.4v10.1c0,1.2.5,2.1,1.7,2.1s1.4-.3,1.7-.7l.8,1.9c-.6.6-1.6,1-3.1,1-2.4,0-3.7-1.4-3.7-3.8Z"/>
        <path class="st0" d="M593.7,636.4c5,0,7.9,3.8,7.9,8.7v.6h-13.4c.2,3.1,2.4,5.6,5.9,5.6s3.8-.7,5.1-2.1l1.2,1.7c-1.6,1.6-3.9,2.5-6.6,2.5-4.9,0-8.4-3.5-8.4-8.6s3.4-8.5,8.1-8.5ZM588.2,643.9h10.8c0-2.4-1.7-5.4-5.4-5.4s-5.3,2.9-5.4,5.4Z"/>
        <path class="st0" d="M605.7,653.1v-22.5h2.6v22.5h-2.6Z"/>
        <path class="st0" d="M613.4,653.1v-22.5h2.6v22.5h-2.6Z"/>
        <path class="st0" d="M628.3,636.4c5,0,7.9,3.8,7.9,8.7v.6h-13.4c.2,3.1,2.4,5.6,5.9,5.6s3.8-.7,5.1-2.1l1.2,1.7c-1.6,1.6-3.9,2.5-6.6,2.5-4.9,0-8.4-3.5-8.4-8.6s3.4-8.5,8.1-8.5ZM622.9,643.9h10.8c0-2.4-1.7-5.4-5.4-5.4s-5.3,2.9-5.4,5.4Z"/>
        <path class="st0" d="M647.6,636.4c3,0,4.8,1.2,6.1,2.8l-1.7,1.6c-1.1-1.5-2.5-2.1-4.2-2.1-3.5,0-5.7,2.7-5.7,6.3s2.2,6.3,5.7,6.3,3.1-.7,4.2-2.1l1.7,1.6c-1.3,1.6-3,2.8-6.1,2.8-4.9,0-8.2-3.7-8.2-8.6s3.3-8.5,8.2-8.5Z"/>
        <path class="st0" d="M657.8,649.7v-10.7h-2.7v-2.2h2.7v-4.5h2.6v4.5h3.4v2.2h-3.4v10.1c0,1.2.5,2.1,1.7,2.1s1.4-.3,1.7-.7l.8,1.9c-.6.6-1.6,1-3.1,1-2.4,0-3.7-1.4-3.7-3.8Z"/>
        <path class="st0" d="M678.5,653.1v-2.3c-1.3,1.4-3.4,2.7-5.9,2.7s-5.3-1.7-5.3-5.2v-11.5h2.6v10.7c0,2.9,1.5,3.7,3.7,3.7s3.9-1.1,4.9-2.5v-12h2.6v16.3h-2.6Z"/>
        <path class="st0" d="M696.5,653.1v-1.9c-1.4,1.5-3.2,2.3-5.5,2.3s-5.8-1.9-5.8-5.4,3-5.4,5.8-5.4,4.1.7,5.5,2.2v-2.9c0-2.2-1.8-3.4-4.2-3.4s-3.6.7-5.1,2.3l-1.2-1.8c1.8-1.8,3.9-2.7,6.6-2.7s6.4,1.6,6.4,5.5v11.2h-2.6ZM696.5,646.6c-1-1.3-2.7-2-4.5-2s-4.1,1.5-4.1,3.6,1.7,3.5,4.1,3.5,3.6-.7,4.5-2v-3.1Z"/>
        <path class="st0" d="M704.2,653.1v-22.5h2.6v22.5h-2.6Z"/>
        <path class="st0" d="M720.8,653.1v-22.5h9.2c4.6,0,7.1,3.1,7.1,6.8s-2.6,6.8-7.1,6.8h-6.3v8.9h-2.8ZM729.6,633.1h-6v8.6h6c2.7,0,4.5-1.8,4.5-4.3s-1.8-4.3-4.5-4.3Z"/>
        <path class="st0" d="M740.8,653.1v-16.3h2.6v2.6c1.3-1.7,3.2-3,5.5-3v2.6c-.3,0-.6-.1-1-.1-1.6,0-3.7,1.3-4.5,2.6v11.5h-2.6Z"/>
        <path class="st0" d="M751.1,645c0-4.7,3.1-8.5,8.2-8.5s8.2,3.8,8.2,8.5-3.1,8.6-8.2,8.6-8.2-3.8-8.2-8.6ZM764.7,645c0-3.3-1.9-6.3-5.5-6.3s-5.5,3-5.5,6.3,2,6.3,5.5,6.3,5.5-3,5.5-6.3Z"/>
        <path class="st0" d="M774.2,659.3h-2.6v-22.5h2.6v2.4c1.2-1.7,3.2-2.8,5.6-2.8,4.3,0,7.4,3.2,7.4,8.5s-3,8.6-7.4,8.6-4.2-1-5.6-2.9v8.7ZM779.1,638.7c-2,0-4,1.2-4.9,2.6v7.4c.9,1.4,2.9,2.6,4.9,2.6,3.3,0,5.3-2.7,5.3-6.3s-2-6.3-5.3-6.3Z"/>
        <path class="st0" d="M798.4,636.4c5,0,7.9,3.8,7.9,8.7v.6h-13.4c.2,3.1,2.4,5.6,5.9,5.6s3.8-.7,5.1-2.1l1.2,1.7c-1.6,1.6-3.9,2.5-6.6,2.5-4.9,0-8.4-3.5-8.4-8.6s3.4-8.5,8.1-8.5ZM793,643.9h10.8c0-2.4-1.7-5.4-5.4-5.4s-5.3,2.9-5.4,5.4Z"/>
        <path class="st0" d="M810.5,653.1v-16.3h2.6v2.6c1.3-1.7,3.2-3,5.5-3v2.6c-.3,0-.6-.1-1-.1-1.6,0-3.7,1.3-4.5,2.6v11.5h-2.6Z"/>
        <path class="st0" d="M822.3,649.7v-10.7h-2.7v-2.2h2.7v-4.5h2.6v4.5h3.4v2.2h-3.4v10.1c0,1.2.5,2.1,1.7,2.1s1.4-.3,1.7-.7l.8,1.9c-.6.6-1.6,1-3.1,1-2.4,0-3.7-1.4-3.7-3.8Z"/>
        <path class="st0" d="M831.3,657.2c.4.2,1,.3,1.4.3,1.1,0,1.9-.4,2.5-1.7l1.1-2.5-6.9-16.5h2.8l5.5,13.4,5.5-13.4h2.8l-8.3,19.6c-1,2.4-2.7,3.3-4.9,3.3-.5,0-1.4-.1-1.9-.2l.4-2.3Z"/>
        <path class="st0" d="M857.5,653.1v-22.5h2.8v20h10.6v2.5h-13.4Z"/>
        <path class="st0" d="M884.7,653.1v-1.9c-1.4,1.5-3.2,2.3-5.5,2.3s-5.8-1.9-5.8-5.4,3-5.4,5.8-5.4,4.1.7,5.5,2.2v-2.9c0-2.2-1.8-3.4-4.2-3.4s-3.6.7-5.1,2.3l-1.2-1.8c1.8-1.8,3.9-2.7,6.6-2.7s6.4,1.6,6.4,5.5v11.2h-2.6ZM884.7,646.6c-1-1.3-2.7-2-4.5-2s-4.1,1.5-4.1,3.6,1.7,3.5,4.1,3.5,3.6-.7,4.5-2v-3.1Z"/>
        <path class="st0" d="M906.7,653.1l-4.3-13.1-4.3,13.1h-2.6l-5.3-16.3h2.7l4,13,4.3-13h2.2l4.3,13,4-13h2.7l-5.3,16.3h-2.6Z"/>
      </g>
    </g>
  </g>
</svg>
